<?xml version="1.0" encoding="utf-8"?>
<!-- Generator: Adobe Illustrator 15.0.0, SVG Export Plug-In . SVG Version: 6.00 Build 0)  -->
<!DOCTYPE svg PUBLIC "-//W3C//DTD SVG 1.1//EN" "http://www.w3.org/Graphics/SVG/1.1/DTD/svg11.dtd">
<svg version="1.1" id="Layer_1" xmlns="http://www.w3.org/2000/svg" xmlns:xlink="http://www.w3.org/1999/xlink" x="0px" y="0px"
	 width="100px" height="100px" viewBox="0 -15 100 100" enable-background="new 0 -15 100 100" xml:space="preserve">
<g>
	<path fill="#A29060" d="M42.997,62.661L50,69.665l7.003-7.004C55.212,60.867,52.734,59.76,50,59.76
		C47.264,59.76,44.789,60.867,42.997,62.661z"/>
	<path fill="#A29060" d="M29,48.665l6.995,6.991c3.584-3.582,8.536-5.801,14.004-5.801c5.467,0,10.421,2.219,14.006,5.801L71,48.665
		c-5.379-5.383-12.809-8.714-21-8.714C41.808,39.951,34.379,43.282,29,48.665z"/>
	<path fill="#A29060" d="M14.999,34.664l6.989,6.984C29.157,34.481,39.061,30.048,50,30.048c10.941,0,20.843,4.433,28.012,11.601
		l6.989-6.983C76.034,25.695,63.652,20.143,50,20.143C36.347,20.143,23.967,25.695,14.999,34.664z"/>
	<path fill="#A29060" d="M50,0.335c-19.113,0-36.446,7.774-49,20.328l6.98,6.983C18.736,16.89,33.592,10.24,50,10.24
		c16.409,0,31.266,6.65,42.018,17.406L99,20.663C86.443,8.109,69.113,0.335,50,0.335z"/>
</g>
</svg>
