<?xml version="1.0" encoding="utf-8"?>
<!-- Generator: Adobe Illustrator 15.0.0, SVG Export Plug-In . SVG Version: 6.00 Build 0)  -->
<!DOCTYPE svg PUBLIC "-//W3C//DTD SVG 1.1//EN" "http://www.w3.org/Graphics/SVG/1.1/DTD/svg11.dtd">
<svg version="1.1" id="Layer_1" xmlns="http://www.w3.org/2000/svg" xmlns:xlink="http://www.w3.org/1999/xlink" x="0px" y="0px"
	 width="100px" height="100px" viewBox="0 -8.176 100 100" enable-background="new 0 -8.176 100 100" xml:space="preserve">
<path fill="#A29060" d="M15.727,43.753"/>
<path fill="#A29060" d="M90.925,28.696L82.729,7.529C81.195,3.477,77.846,0.029,71.505,0h-11.56H40.188H28.427
	c-6.311,0.029-9.661,3.479-11.222,7.529L9.006,28.696C5.751,29.116-0.01,32.941,0,40.187v26.951h7.999v8.603
	c-0.02,10.606,14.989,10.48,14.985,0v-8.603H50h26.947v8.603c0.033,10.48,15.043,10.606,15.053,0v-8.603h8V40.187
	C99.975,32.941,94.21,29.116,90.925,28.696z M15.727,50.874c-3.834,0.011-6.938-3.187-6.922-7.12
	c-0.016-3.96,3.088-7.161,6.922-7.128c3.822-0.033,6.926,3.168,6.921,7.128C22.653,47.687,19.548,50.884,15.727,50.874z M50,28.497
	h-0.067H17.541l6.182-16.668c0.746-2.366,1.904-4.059,4.639-4.1h21.571H50h21.641c2.692,0.041,3.854,1.731,4.635,4.1l6.185,16.668
	H50z M84.273,50.874c-3.86,0.011-6.967-3.187-6.987-7.12c0.021-3.96,3.127-7.161,6.987-7.128c3.795-0.033,6.897,3.168,6.922,7.128
	C91.172,47.687,88.068,50.884,84.273,50.874z"/>
<path fill="#A29060" d="M84.273,43.753"/>
</svg>
